<svg width="26" height="26" viewBox="0 0 26 26" fill="none" xmlns="http://www.w3.org/2000/svg">
<path d="M12.9543 6.455C14.5522 6.455 15.9831 7.00569 17.1115 8.07999L20.2035 4.98799C18.3258 3.24111 15.8747 2.16681 12.9543 2.16681C8.72023 2.16681 5.05947 4.59528 3.27649 8.13416L6.87857 10.9283C7.73169 8.35985 10.1286 6.455 12.9543 6.455Z" fill="black"/>
<path d="M23.3264 13.2486C23.3264 12.5399 23.2587 11.8538 23.1549 11.1948H12.9535V15.2663H18.7945C18.5326 16.6024 17.7743 17.7399 16.6368 18.5073L20.126 21.2156C22.1618 19.3288 23.3264 16.5392 23.3264 13.2486Z" fill="black"/>
<path d="M6.87323 15.0725C6.65657 14.418 6.53018 13.7228 6.53018 13.0006C6.53018 12.2784 6.65205 11.5832 6.87323 10.9287L3.27116 8.13464C2.53539 9.59714 2.12012 11.2492 2.12012 13.0006C2.12012 14.752 2.53539 16.4041 3.27567 17.8666L6.87323 15.0725Z" fill="black"/>
<path d="M12.9534 23.8333C15.8784 23.8333 18.3385 22.8719 20.126 21.2107L16.6367 18.5024C15.6662 19.1569 14.4159 19.5406 12.9534 19.5406C10.1277 19.5406 7.73083 17.6358 6.8732 15.0674L3.27112 17.8614C5.05862 21.4048 8.71937 23.8333 12.9534 23.8333Z" fill="black"/>
</svg>
